<svg xmlns="http://www.w3.org/2000/svg" width="800" height="800" viewBox="0 0 800 800">
  <defs>
    <style>
      .matrix-text {
        font-family: monospace;
        fill: #00e5ff;
        fill-opacity: 0.2;
        font-size: 14px;
      }
      
      .matrix-text-bright {
        font-family: monospace;
        fill: #00e5ff;
        fill-opacity: 0.5;
        font-size: 14px;
        font-weight: bold;
      }
    </style>
  </defs>
  
  <!-- Matrix Raining Code Background -->
  <!-- Row 1 -->
  <text x="20" y="20" class="matrix-text">01100101</text>
  <text x="80" y="20" class="matrix-text-bright">{</text>
  <text x="100" y="20" class="matrix-text">SELECT *</text>
  <text x="160" y="20" class="matrix-text-bright">}</text>
  <text x="180" y="20" class="matrix-text">00110110</text>
  <text x="240" y="20" class="matrix-text">function()</text>
  <text x="320" y="20" class="matrix-text-bright">&lt;div&gt;</text>
  <text x="360" y="20" class="matrix-text">10101010</text>
  <text x="420" y="20" class="matrix-text">await</text>
  <text x="460" y="20" class="matrix-text-bright">if</text>
  <text x="480" y="20" class="matrix-text">11001100</text>
  <text x="540" y="20" class="matrix-text-bright">()</text>
  <text x="560" y="20" class="matrix-text">return;</text>
  <text x="620" y="20" class="matrix-text">while</text>
  <text x="660" y="20" class="matrix-text-bright">{}</text>
  <text x="680" y="20" class="matrix-text">10110101</text>
  <text x="740" y="20" class="matrix-text">var</text>
  
  <!-- Row 2 -->
  <text x="20" y="50" class="matrix-text-bright">for</text>
  <text x="50" y="50" class="matrix-text">01010101</text>
  <text x="110" y="50" class="matrix-text">class</text>
  <text x="150" y="50" class="matrix-text-bright">extends</text>
  <text x="210" y="50" class="matrix-text">11110000</text>
  <text x="270" y="50" class="matrix-text">import</text>
  <text x="320" y="50" class="matrix-text-bright">FROM</text>
  <text x="360" y="50" class="matrix-text">10100011</text>
  <text x="420" y="50" class="matrix-text-bright">=&gt;</text>
  <text x="440" y="50" class="matrix-text">00111100</text>
  <text x="500" y="50" class="matrix-text">WHERE</text>
  <text x="550" y="50" class="matrix-text-bright">==</text>
  <text x="570" y="50" class="matrix-text">11001100</text>
  <text x="630" y="50" class="matrix-text">JOIN</text>
  <text x="670" y="50" class="matrix-text-bright">&amp;&amp;</text>
  <text x="700" y="50" class="matrix-text">01010101</text>
  <text x="760" y="50" class="matrix-text">let</text>
  
  <!-- Row 3 -->
  <text x="20" y="80" class="matrix-text">01110111</text>
  <text x="80" y="80" class="matrix-text-bright">try</text>
  <text x="100" y="80" class="matrix-text">catch(e)</text>
  <text x="160" y="80" class="matrix-text-bright">;</text>
  <text x="170" y="80" class="matrix-text">00110110</text>
  <text x="230" y="80" class="matrix-text">INSERT</text>
  <text x="280" y="80" class="matrix-text-bright">VALUES</text>
  <text x="340" y="80" class="matrix-text">10101010</text>
  <text x="400" y="80" class="matrix-text">const</text>
  <text x="440" y="80" class="matrix-text-bright">new</text>
  <text x="470" y="80" class="matrix-text">11001100</text>
  <text x="530" y="80" class="matrix-text-bright">default</text>
  <text x="590" y="80" class="matrix-text">break;</text>
  <text x="640" y="80" class="matrix-text">throw</text>
  <text x="680" y="80" class="matrix-text-bright">!==</text>
  <text x="710" y="80" class="matrix-text">10110101</text>
  <text x="770" y="80" class="matrix-text">void</text>
  
  <!-- Repeat patterns to fill SVG -->
  <!-- Row 4 -->
  <text x="20" y="110" class="matrix-text-bright">map</text>
  <text x="50" y="110" class="matrix-text">01110101</text>
  <text x="110" y="110" class="matrix-text">filter</text>
  <text x="150" y="110" class="matrix-text-bright">reduce</text>
  <text x="200" y="110" class="matrix-text">11110000</text>
  <text x="260" y="110" class="matrix-text">fetch</text>
  <text x="300" y="110" class="matrix-text-bright">POST</text>
  <text x="340" y="110" class="matrix-text">10100011</text>
  <text x="400" y="110" class="matrix-text-bright">JSON</text>
  <text x="440" y="110" class="matrix-text">00111100</text>
  <text x="500" y="110" class="matrix-text">GET</text>
  <text x="530" y="110" class="matrix-text-bright">PUT</text>
  <text x="560" y="110" class="matrix-text">11001100</text>
  <text x="620" y="110" class="matrix-text">then</text>
  <text x="650" y="110" class="matrix-text-bright">async</text>
  <text x="690" y="110" class="matrix-text">01010101</text>
  <text x="750" y="110" class="matrix-text">this</text>
  
  <!-- Row 5 -->
  <text x="20" y="140" class="matrix-text">01001001</text>
  <text x="80" y="140" class="matrix-text-bright">&lt;/div&gt;</text>
  <text x="130" y="140" class="matrix-text">&lt;span&gt;</text>
  <text x="180" y="140" class="matrix-text-bright">&lt;/span&gt;</text>
  <text x="240" y="140" class="matrix-text">00110110</text>
  <text x="300" y="140" class="matrix-text">div</text>
  <text x="330" y="140" class="matrix-text-bright">body</text>
  <text x="370" y="140" class="matrix-text">10101010</text>
  <text x="430" y="140" class="matrix-text">html</text>
  <text x="470" y="140" class="matrix-text-bright">CSS</text>
  <text x="500" y="140" class="matrix-text">11001100</text>
  <text x="560" y="140" class="matrix-text-bright">@media</text>
  <text x="610" y="140" class="matrix-text">flex</text>
  <text x="640" y="140" class="matrix-text">grid</text>
  <text x="670" y="140" class="matrix-text-bright">#id</text>
  <text x="700" y="140" class="matrix-text">10110101</text>
  <text x="760" y="140" class="matrix-text">.class</text>
  
  <!-- More rows -->
  <!-- Row 6 -->
  <text x="20" y="170" class="matrix-text-bright">UPDATE</text>
  <text x="80" y="170" class="matrix-text">01010101</text>
  <text x="140" y="170" class="matrix-text">SET</text>
  <text x="170" y="170" class="matrix-text-bright">DELETE</text>
  <text x="220" y="170" class="matrix-text">11110000</text>
  <text x="280" y="170" class="matrix-text">GROUP BY</text>
  <text x="350" y="170" class="matrix-text-bright">ORDER</text>
  <text x="400" y="170" class="matrix-text">10100011</text>
  <text x="460" y="170" class="matrix-text-bright">ALTER</text>
  <text x="500" y="170" class="matrix-text">00111100</text>
  <text x="560" y="170" class="matrix-text">CREATE</text>
  <text x="610" y="170" class="matrix-text-bright">DROP</text>
  <text x="650" y="170" class="matrix-text">11001100</text>
  <text x="710" y="170" class="matrix-text">INDEX</text>
  <text x="750" y="170" class="matrix-text-bright">KEY</text>
  
  <!-- Row 7 -->
  <text x="20" y="200" class="matrix-text">10111011</text>
  <text x="80" y="200" class="matrix-text-bright">public</text>
  <text x="130" y="200" class="matrix-text">private</text>
  <text x="180" y="200" class="matrix-text-bright">static</text>
  <text x="230" y="200" class="matrix-text">10110110</text>
  <text x="290" y="200" class="matrix-text">void</text>
  <text x="320" y="200" class="matrix-text-bright">int</text>
  <text x="350" y="200" class="matrix-text">01101010</text>
  <text x="410" y="200" class="matrix-text">String</text>
  <text x="460" y="200" class="matrix-text-bright">boolean</text>
  <text x="520" y="200" class="matrix-text">01001100</text>
  <text x="580" y="200" class="matrix-text-bright">interface</text>
  <text x="640" y="200" class="matrix-text">abstract</text>
  <text x="700" y="200" class="matrix-text">Object</text>
  <text x="750" y="200" class="matrix-text-bright">null</text>
  
  <!-- Row 8 -->
  <text x="20" y="230" class="matrix-text-bright">print</text>
  <text x="60" y="230" class="matrix-text">01110101</text>
  <text x="120" y="230" class="matrix-text">console.log</text>
  <text x="200" y="230" class="matrix-text-bright">System.out</text>
  <text x="270" y="230" class="matrix-text">11110000</text>
  <text x="330" y="230" class="matrix-text">import</text>
  <text x="380" y="230" class="matrix-text-bright">from</text>
  <text x="420" y="230" class="matrix-text">10100011</text>
  <text x="480" y="230" class="matrix-text-bright">require</text>
  <text x="540" y="230" class="matrix-text">00111100</text>
  <text x="600" y="230" class="matrix-text">module</text>
  <text x="650" y="230" class="matrix-text-bright">export</text>
  <text x="700" y="230" class="matrix-text">11001100</text>
  <text x="760" y="230" class="matrix-text">router</text>

  <!-- Random Binary Row -->
  <text x="20" y="260" class="matrix-text">01001001</text>
  <text x="80" y="260" class="matrix-text">10110110</text>
  <text x="140" y="260" class="matrix-text">00110011</text>
  <text x="200" y="260" class="matrix-text">11001100</text>
  <text x="260" y="260" class="matrix-text">01010101</text>
  <text x="320" y="260" class="matrix-text">10101010</text>
  <text x="380" y="260" class="matrix-text">01101001</text>
  <text x="440" y="260" class="matrix-text">10010110</text>
  <text x="500" y="260" class="matrix-text">01100110</text>
  <text x="560" y="260" class="matrix-text">10011001</text>
  <text x="620" y="260" class="matrix-text">01010101</text>
  <text x="680" y="260" class="matrix-text">10101010</text>
  <text x="740" y="260" class="matrix-text">01100110</text>
</svg>
